<svg width="58" height="58" viewBox="0 0 58 58" fill="none" xmlns="http://www.w3.org/2000/svg">
<circle cx="29" cy="29" r="29" fill="black"/>
<g clip-path="url(#clip0)">
<path d="M40.8081 34.5661C38.483 33.7246 34.6089 32.7219 29.3625 32.7219C24.1161 32.7219 20.242 33.7246 17.9169 34.5661C15.9944 35.261 14.7024 37.1062 14.7024 39.1596V43.4726C14.7024 44.0121 15.1402 44.45 15.6797 44.45H43.0453C43.5848 44.45 44.0226 44.0121 44.0226 43.4726V39.1596C44.0226 37.1062 42.7306 35.261 40.8081 34.5661Z" fill="#F7F5F5"/>
<path d="M29.3624 30.7672C33.6735 30.7672 37.1812 27.2595 37.1812 22.9485V20.9938C37.1812 16.6827 33.6735 13.175 29.3624 13.175C25.0514 13.175 21.5437 16.6827 21.5437 20.9938V22.9485C21.5437 27.2595 25.0514 30.7672 29.3624 30.7672Z" fill="#F7F5F5"/>
</g>
<defs>
<clipPath id="clip0">
<rect x="13.7251" y="13.175" width="31.2749" height="31.2749" rx="15.6375" fill="white"/>
</clipPath>
</defs>
</svg>
