<svg width="97" height="58" viewBox="0 0 97 58" fill="none" xmlns="http://www.w3.org/2000/svg">
<path d="M13.3545 53.1484H6.54346L5.354 57H0.0439453L7.60547 36.3828H12.2783L19.8965 57H14.5581L13.3545 53.1484ZM7.73291 49.311H12.165L9.94189 42.1602L7.73291 49.311Z" fill="black"/>
<path d="M26.2261 57H21.4399V41.6787H26.2261V57Z" fill="black"/>
<path d="M38.4463 45.9976L36.8745 45.8843C35.3735 45.8843 34.4106 46.3563 33.9858 47.3003V57H29.2139V41.6787H33.6885L33.8442 43.647C34.6466 42.146 35.7653 41.3955 37.2002 41.3955C37.71 41.3955 38.1536 41.4521 38.5312 41.5654L38.4463 45.9976Z" fill="black"/>
<path d="M40.3862 57V36.3828H47.792C50.4447 36.3828 52.4601 36.869 53.8384 37.8413C55.2261 38.8136 55.9199 40.2249 55.9199 42.0752C55.9199 43.1419 55.6745 44.0529 55.1836 44.8081C54.6927 45.5633 53.9705 46.1203 53.0171 46.479C54.0933 46.7622 54.9193 47.2909 55.4951 48.0649C56.071 48.839 56.3589 49.783 56.3589 50.897C56.3589 52.9172 55.717 54.437 54.4331 55.4565C53.1587 56.4666 51.266 56.9811 48.7549 57H40.3862ZM45.3564 48.2349V53.1768H48.6133C49.5101 53.1768 50.1992 52.9738 50.6807 52.5679C51.1621 52.1525 51.4028 51.5719 51.4028 50.8262C51.4028 49.1081 50.5485 48.2443 48.8398 48.2349H45.3564ZM45.3564 44.978H47.9478C49.0334 44.9686 49.8075 44.7703 50.27 44.3833C50.7326 43.9963 50.9639 43.4251 50.9639 42.6699C50.9639 41.8014 50.7137 41.1784 50.2134 40.8008C49.7131 40.4137 48.9059 40.2202 47.792 40.2202H45.3564V44.978Z" fill="black"/>
<path d="M63.9204 57H59.1343V41.6787H63.9204V57Z" fill="black"/>
<path d="M73.0254 51.2935L71.6802 52.6387V57H66.9082V35.2358H71.6802V46.7905L72.1616 46.1533L75.7583 41.6787H81.479L76.1123 47.98L81.833 57H76.3672L73.0254 51.2935Z" fill="black"/>
<path d="M89.8618 57.2832C87.5112 57.2832 85.609 56.5846 84.1553 55.1875C82.7015 53.7809 81.9746 51.9543 81.9746 49.7075V49.311C81.9746 47.744 82.2625 46.361 82.8384 45.1621C83.4237 43.9632 84.2733 43.0381 85.3872 42.3867C86.5011 41.7259 87.8228 41.3955 89.3521 41.3955C91.5044 41.3955 93.2036 42.0658 94.4497 43.4062C95.6958 44.7373 96.3188 46.597 96.3188 48.9854V50.8403H86.8315C87.0015 51.6994 87.3743 52.3743 87.9502 52.8652C88.526 53.3561 89.2718 53.6016 90.1875 53.6016C91.6979 53.6016 92.8779 53.0729 93.7275 52.0156L95.9082 54.5928C95.3135 55.4141 94.4686 56.0701 93.3735 56.561C92.2879 57.0425 91.1174 57.2832 89.8618 57.2832ZM89.3237 45.0771C87.9266 45.0771 87.0959 46.0023 86.8315 47.8525H91.646V47.4844C91.6649 46.7197 91.4714 46.1297 91.0654 45.7144C90.6595 45.2896 90.0789 45.0771 89.3237 45.0771Z" fill="black"/>
<path d="M42.1539 9.33438C43.831 8.91559 44.8604 7.20083 44.4417 5.52378C44.0229 3.84674 42.3081 2.81725 40.6311 3.23604C38.954 3.65482 37.9245 5.36959 38.3433 7.04663C38.7621 8.72368 40.4769 9.75316 42.1539 9.33438ZM28.6204 23.2417C24.4278 24.2886 21.8541 28.5755 22.901 32.7682C23.948 36.9608 28.2349 39.5345 32.4275 38.4875C36.6201 37.4406 39.1939 33.1536 38.1469 28.961C37.0999 24.7684 32.813 22.1947 28.6204 23.2417ZM31.8565 36.2006C28.8835 36.943 25.9303 35.17 25.1879 32.1971C24.4455 29.2241 26.2185 26.2709 29.1915 25.5285C32.1644 24.7862 35.1176 26.5592 35.86 29.5321C36.6024 32.505 34.8294 35.4582 31.8565 36.2006ZM36.911 18.8229L39.58 14.2692L41.009 15.1271C43.4097 16.6332 46.3632 17.1104 49.4886 16.3299L48.7272 13.2807C46.4403 13.8518 44.3252 13.4892 42.6104 12.4597L38.9141 10.3054C38.3235 9.88598 37.466 9.69519 36.6275 9.90458C35.789 10.114 35.1028 10.6092 34.7215 11.3523L31.5759 16.5919C31.1755 17.2588 30.9847 18.1162 31.1941 18.9547C31.4035 19.7933 31.975 20.4604 32.6609 20.937L38.5293 24.0066L40.4329 31.6295L43.4821 30.8681L41.1026 21.3394L36.911 18.8229ZM49.9646 17.9117C45.772 18.9586 43.1983 23.2456 44.2452 27.4382C45.2922 31.6308 49.5791 34.2045 53.7717 33.1575C57.9643 32.1106 60.5381 27.8237 59.4911 23.631C58.4441 19.4384 54.1572 16.8647 49.9646 17.9117ZM53.2007 30.8707C50.2277 31.613 47.2745 29.84 46.5321 26.8671C45.7897 23.8942 47.5627 20.941 50.5357 20.1986C53.5086 19.4562 56.4618 21.2292 57.2042 24.2021C57.9466 27.1751 56.1736 30.1283 53.2007 30.8707Z" fill="#000101"/>
</svg>
